General
Unique ID                        : 196394992876298996839897634622661126987 (0x93C04CBDC7C482C1AD5B14F1FF0AEB4B)
Complete name                    : angel-a.mkv
Format                           : Matroska
File size                        : 4.37 GiB
Duration                         : 1h 30mn
Overall bit rate                 : 6 901 Kbps
Encoded date                     : UTC 2011-06-03 12:27:29
Writing application              : mkvmerge v4.7.0 ('Just Like You Imagined')
Writing library                  : libebml v1.2.0 + libmatroska v1.1.0

Video
ID                               : 1
Format                           : AVC
Format/Info                      : Advanced Video Codec
Format profile                   : High@L3.1
Format settings, CABAC           : Yes
Format settings, ReFrames        : 5 frames
Muxing mode                      : Header stripping
Codec ID                         : V_MPEG4/ISO/AVC
Duration                         : 1h 30mn
Bit rate                         : 5 393 Kbps
Width                            : 1 280 pixels
Height                           : 544 pixels
Display aspect ratio             : 2.35:1
Frame rate                       : 24.000 fps
Color space                      : YUV
Chroma subsampling               : 4:2:0
Bit depth                        : 8 bits
Scan type                        : Progressive
Bits/(Pixel*Frame)               : 0.323
Stream size                      : 3.33 GiB (76%)
Title                            : angel-a video
Writing library                  : x264 core 65 r1016 dbc5ef0
Encoding settings                : cabac=1 / ref=5 / deblock=1:0:0 / analyse=0x3:0x2 / me=hex / subme=7 / psy_rd=1.0:0.0 / mixed_ref=1 / me_range=16 / chroma_me=1 / trellis=1 / 8x8dct=1 / cqm=0 / deadzone=21,11 / chroma_qp_offset=-2 / threads=3 / nr=0 / decimate=1 / mbaff=0 / bframes=3 / b_pyramid=1 / b_adapt=1 / b_bias=0 / direct=1 / wpredb=1 / keyint=250 / keyint_min=25 / scenecut=40(pre) / rc=2pass / bitrate=5393 / ratetol=1.0 / qcomp=0.60 / qpmin=10 / qpmax=51 / qpstep=4 / cplxblur=20.0 / qblur=0.5 / ip_ratio=1.40 / pb_ratio=1.30 / aq=1:1.00
Language                         : French

Audio
ID                               : 2
Format                           : DTS
Format/Info                      : Digital Theater Systems
Muxing mode                      : Header stripping
Codec ID                         : A_DTS
Duration                         : 1h 30mn
Bit rate mode                    : Constant
Bit rate                         : 1 510 Kbps
Channel(s)                       : 6 channels
Channel positions                : Front: L C R, Side: L R, LFE
Sampling rate                    : 48.0 KHz
Bit depth                        : 24 bits
Compression mode                 : Lossy
Stream size                      : 979 MiB (22%)
Title                            : angel-a audio
Language                         : French

Text
ID                               : 3
Format                           : UTF-8
Codec ID                         : S_TEXT/UTF8
Codec ID/Info                    : UTF-8 Plain Text
Title                            : turkish
Language                         : Turkish